<mxfile host="65bd71144e">
    <diagram id="n47erqk1qBSO2eGK4Anm" name="第 1 页">
        <mxGraphModel dx="4662" dy="2476" grid="0" gridSize="10" guides="1" tooltips="1" connect="1" arrows="1" fold="1" page="0" pageScale="1" pageWidth="1600" pageHeight="1200" math="0" shadow="0">
            <root>
                <mxCell id="0"/>
                <mxCell id="1" parent="0"/>
                <mxCell id="27" value="" style="rounded=0;whiteSpace=wrap;html=1;glass=0;sketch=1;hachureGap=4;fillStyle=auto;fontFamily=Comic Sans MS;fontSize=40;fontColor=#660000;strokeWidth=2;" parent="1" vertex="1">
                    <mxGeometry x="-1226" y="298" width="623" height="383" as="geometry"/>
                </mxCell>
                <mxCell id="5" value="" style="rounded=1;whiteSpace=wrap;html=1;sketch=1;hachureGap=4;fontFamily=Architects Daughter;fontSource=https%3A%2F%2Ffonts.googleapis.com%2Fcss%3Ffamily%3DArchitects%2BDaughter;fontSize=20;glass=0;fillStyle=auto;strokeWidth=2;" parent="1" vertex="1">
                    <mxGeometry x="-1195" y="-1001" width="664" height="498" as="geometry"/>
                </mxCell>
                <mxCell id="6" value="&lt;font face=&quot;Comic Sans MS&quot; size=&quot;1&quot;&gt;&lt;b style=&quot;font-size: 35px&quot;&gt;Source&lt;/b&gt;&lt;/font&gt;" style="rounded=1;whiteSpace=wrap;html=1;glass=0;sketch=1;hachureGap=4;fillStyle=auto;fontFamily=Architects Daughter;fontSource=https%3A%2F%2Ffonts.googleapis.com%2Fcss%3Ffamily%3DArchitects%2BDaughter;fontSize=20;strokeWidth=2;" parent="1" vertex="1">
                    <mxGeometry x="-1151" y="-957" width="182" height="73" as="geometry"/>
                </mxCell>
                <mxCell id="7" value="&lt;font face=&quot;Comic Sans MS&quot; style=&quot;font-size: 36px&quot;&gt;&lt;b&gt;Channel&lt;/b&gt;&lt;/font&gt;" style="shape=cylinder3;whiteSpace=wrap;html=1;boundedLbl=1;backgroundOutline=1;size=12;glass=0;sketch=1;hachureGap=4;fillStyle=auto;fontFamily=Architects Daughter;fontSource=https%3A%2F%2Ffonts.googleapis.com%2Fcss%3Ffamily%3DArchitects%2BDaughter;fontSize=20;strokeWidth=2;direction=east;flipV=0;horizontal=0;" parent="1" vertex="1">
                    <mxGeometry x="-897" y="-857" width="93" height="217" as="geometry"/>
                </mxCell>
                <mxCell id="8" value="&lt;font face=&quot;Comic Sans MS&quot; style=&quot;font-size: 35px&quot;&gt;&lt;b&gt;Sink&lt;/b&gt;&lt;/font&gt;" style="rounded=1;whiteSpace=wrap;html=1;glass=0;sketch=1;hachureGap=4;fillStyle=auto;fontFamily=Architects Daughter;fontSource=https%3A%2F%2Ffonts.googleapis.com%2Fcss%3Ffamily%3DArchitects%2BDaughter;fontSize=20;strokeWidth=2;" parent="1" vertex="1">
                    <mxGeometry x="-741" y="-609" width="169" height="75" as="geometry"/>
                </mxCell>
                <mxCell id="9" value="" style="endArrow=classic;html=1;rounded=0;sketch=1;hachureGap=4;fontFamily=Architects Daughter;fontSource=https%3A%2F%2Ffonts.googleapis.com%2Fcss%3Ffamily%3DArchitects%2BDaughter;fontSize=16;startSize=14;endSize=14;sourcePerimeterSpacing=8;targetPerimeterSpacing=8;exitX=1;exitY=0.5;exitDx=0;exitDy=0;entryX=0.5;entryY=0;entryDx=0;entryDy=0;entryPerimeter=0;strokeWidth=4;" parent="1" source="6" target="7" edge="1">
                    <mxGeometry width="50" height="50" relative="1" as="geometry">
                        <mxPoint x="-920" y="-529" as="sourcePoint"/>
                        <mxPoint x="-870" y="-579" as="targetPoint"/>
                    </mxGeometry>
                </mxCell>
                <mxCell id="10" value="" style="endArrow=classic;html=1;rounded=0;sketch=1;hachureGap=4;fontFamily=Architects Daughter;fontSource=https%3A%2F%2Ffonts.googleapis.com%2Fcss%3Ffamily%3DArchitects%2BDaughter;fontSize=16;startSize=14;endSize=14;sourcePerimeterSpacing=8;targetPerimeterSpacing=8;entryX=0;entryY=0.5;entryDx=0;entryDy=0;strokeWidth=4;exitX=0.5;exitY=1;exitDx=0;exitDy=0;exitPerimeter=0;" parent="1" source="7" target="8" edge="1">
                    <mxGeometry width="50" height="50" relative="1" as="geometry">
                        <mxPoint x="-966" y="-897.5" as="sourcePoint"/>
                        <mxPoint x="-843.3139999999999" y="-805.309" as="targetPoint"/>
                    </mxGeometry>
                </mxCell>
                <mxCell id="11" value="&lt;font style=&quot;font-size: 40px&quot;&gt;Agent&lt;/font&gt;" style="text;strokeColor=none;fillColor=none;html=1;align=center;verticalAlign=middle;whiteSpace=wrap;rounded=0;glass=0;sketch=1;hachureGap=4;fillStyle=auto;fontFamily=Comic Sans MS;fontSize=35;fontColor=#660000;" parent="1" vertex="1">
                    <mxGeometry x="-1138" y="-592" width="128" height="62" as="geometry"/>
                </mxCell>
                <mxCell id="13" value="Web&lt;br&gt;Server" style="ellipse;shape=cloud;whiteSpace=wrap;html=1;glass=0;sketch=1;hachureGap=4;fillStyle=auto;fontFamily=Comic Sans MS;fontSize=40;fontColor=#660000;strokeWidth=2;" parent="1" vertex="1">
                    <mxGeometry x="-1625" y="-769" width="241" height="133" as="geometry"/>
                </mxCell>
                <mxCell id="14" value="HDFS" style="shape=cylinder3;whiteSpace=wrap;html=1;boundedLbl=1;backgroundOutline=1;size=15;glass=0;sketch=1;hachureGap=4;fillStyle=auto;fontFamily=Comic Sans MS;fontSize=40;fontColor=#660000;strokeWidth=2;" parent="1" vertex="1">
                    <mxGeometry x="-329" y="-651" width="193" height="148" as="geometry"/>
                </mxCell>
                <mxCell id="15" value="" style="endArrow=classic;html=1;rounded=0;sketch=1;hachureGap=4;fontFamily=Comic Sans MS;fontSize=40;fontColor=#660000;startSize=14;endSize=14;sourcePerimeterSpacing=8;targetPerimeterSpacing=8;strokeWidth=4;exitX=0.875;exitY=0.5;exitDx=0;exitDy=0;exitPerimeter=0;entryX=0;entryY=1;entryDx=0;entryDy=0;" parent="1" source="13" target="6" edge="1">
                    <mxGeometry width="50" height="50" relative="1" as="geometry">
                        <mxPoint x="-1275" y="-686" as="sourcePoint"/>
                        <mxPoint x="-803" y="-634" as="targetPoint"/>
                    </mxGeometry>
                </mxCell>
                <mxCell id="17" value="" style="endArrow=classic;html=1;rounded=0;sketch=1;hachureGap=4;fontFamily=Comic Sans MS;fontSize=40;fontColor=#660000;startSize=14;endSize=14;sourcePerimeterSpacing=8;targetPerimeterSpacing=8;strokeWidth=4;exitX=1;exitY=0.5;exitDx=0;exitDy=0;entryX=0;entryY=0.5;entryDx=0;entryDy=0;entryPerimeter=0;fontStyle=0" parent="1" source="8" target="14" edge="1">
                    <mxGeometry width="50" height="50" relative="1" as="geometry">
                        <mxPoint x="-853" y="-584" as="sourcePoint"/>
                        <mxPoint x="-803" y="-634" as="targetPoint"/>
                    </mxGeometry>
                </mxCell>
                <mxCell id="18" value="Web&lt;br&gt;Server" style="ellipse;shape=cloud;whiteSpace=wrap;html=1;glass=0;sketch=1;hachureGap=4;fillStyle=auto;fontFamily=Comic Sans MS;fontSize=40;fontColor=#660000;strokeWidth=2;" parent="1" vertex="1">
                    <mxGeometry x="-1609" y="444" width="241" height="133" as="geometry"/>
                </mxCell>
                <mxCell id="19" value="Web&lt;br&gt;Server" style="ellipse;shape=cloud;whiteSpace=wrap;html=1;glass=0;sketch=1;hachureGap=4;fillStyle=auto;fontFamily=Comic Sans MS;fontSize=40;fontColor=#660000;strokeWidth=2;" parent="1" vertex="1">
                    <mxGeometry x="-1787" y="2108" width="217" height="137" as="geometry"/>
                </mxCell>
                <mxCell id="20" value="&lt;font face=&quot;Comic Sans MS&quot; size=&quot;1&quot;&gt;&lt;b style=&quot;font-size: 35px&quot;&gt;Source&lt;/b&gt;&lt;/font&gt;" style="rounded=1;whiteSpace=wrap;html=1;glass=0;sketch=1;hachureGap=4;fillStyle=auto;fontFamily=Architects Daughter;fontSource=https%3A%2F%2Ffonts.googleapis.com%2Fcss%3Ffamily%3DArchitects%2BDaughter;fontSize=20;strokeWidth=2;" parent="1" vertex="1">
                    <mxGeometry x="-1190" y="362" width="201" height="82" as="geometry"/>
                </mxCell>
                <mxCell id="21" value="&lt;font face=&quot;Comic Sans MS&quot; style=&quot;font-size: 36px&quot;&gt;&lt;b&gt;Channel&lt;/b&gt;&lt;/font&gt;" style="shape=cylinder3;whiteSpace=wrap;html=1;boundedLbl=1;backgroundOutline=1;size=12;glass=0;sketch=1;hachureGap=4;fillStyle=auto;fontFamily=Architects Daughter;fontSource=https%3A%2F%2Ffonts.googleapis.com%2Fcss%3Ffamily%3DArchitects%2BDaughter;fontSize=20;strokeWidth=2;direction=south;flipV=0;horizontal=1;" parent="1" vertex="1">
                    <mxGeometry x="-1015" y="539" width="224" height="84" as="geometry"/>
                </mxCell>
                <mxCell id="22" value="&lt;font face=&quot;Comic Sans MS&quot; style=&quot;font-size: 35px&quot;&gt;&lt;b&gt;Sink&lt;/b&gt;&lt;/font&gt;" style="rounded=1;whiteSpace=wrap;html=1;glass=0;sketch=1;hachureGap=4;fillStyle=auto;fontFamily=Architects Daughter;fontSource=https%3A%2F%2Ffonts.googleapis.com%2Fcss%3Ffamily%3DArchitects%2BDaughter;fontSize=20;strokeWidth=2;" parent="1" vertex="1">
                    <mxGeometry x="-804" y="327" width="178" height="76" as="geometry"/>
                </mxCell>
                <mxCell id="23" value="&lt;font style=&quot;font-size: 40px&quot;&gt;Agent&lt;/font&gt;" style="text;strokeColor=none;fillColor=none;html=1;align=center;verticalAlign=middle;whiteSpace=wrap;rounded=0;glass=0;sketch=1;hachureGap=4;fillStyle=auto;fontFamily=Comic Sans MS;fontSize=35;fontColor=#660000;" parent="1" vertex="1">
                    <mxGeometry x="-1214" y="606" width="128" height="62" as="geometry"/>
                </mxCell>
                <mxCell id="24" value="HDFS" style="shape=cylinder3;whiteSpace=wrap;html=1;boundedLbl=1;backgroundOutline=1;size=15;glass=0;sketch=1;hachureGap=4;fillStyle=auto;fontFamily=Comic Sans MS;fontSize=40;fontColor=#660000;strokeWidth=2;" parent="1" vertex="1">
                    <mxGeometry x="9" y="1285" width="275" height="218" as="geometry"/>
                </mxCell>
                <mxCell id="28" value="" style="endArrow=classic;html=1;rounded=0;sketch=1;hachureGap=4;fontFamily=Comic Sans MS;fontSize=40;fontColor=#660000;startSize=14;endSize=14;sourcePerimeterSpacing=8;targetPerimeterSpacing=8;strokeWidth=4;exitX=0.875;exitY=0.5;exitDx=0;exitDy=0;exitPerimeter=0;entryX=0;entryY=0.5;entryDx=0;entryDy=0;" parent="1" source="18" target="20" edge="1">
                    <mxGeometry width="50" height="50" relative="1" as="geometry">
                        <mxPoint x="-1397.9950000000001" y="490.4999999999998" as="sourcePoint"/>
                        <mxPoint x="-1134.8699999999997" y="309.0000000000002" as="targetPoint"/>
                    </mxGeometry>
                </mxCell>
                <mxCell id="29" value="" style="endArrow=classic;html=1;rounded=0;sketch=1;hachureGap=4;fontFamily=Comic Sans MS;fontSize=40;fontColor=#660000;startSize=14;endSize=14;sourcePerimeterSpacing=8;targetPerimeterSpacing=8;strokeWidth=4;exitX=0.5;exitY=1;exitDx=0;exitDy=0;entryX=0.5;entryY=1;entryDx=0;entryDy=0;entryPerimeter=0;" parent="1" source="20" target="21" edge="1">
                    <mxGeometry width="50" height="50" relative="1" as="geometry">
                        <mxPoint x="-1126.995" y="544.5" as="sourcePoint"/>
                        <mxPoint x="-918.9999999999995" y="457.00000000000045" as="targetPoint"/>
                    </mxGeometry>
                </mxCell>
                <mxCell id="30" value="" style="endArrow=classic;html=1;rounded=0;sketch=1;hachureGap=4;fontFamily=Comic Sans MS;fontSize=40;fontColor=#660000;startSize=14;endSize=14;sourcePerimeterSpacing=8;targetPerimeterSpacing=8;strokeWidth=4;exitX=0.5;exitY=0;exitDx=0;exitDy=0;exitPerimeter=0;entryX=0.5;entryY=1;entryDx=0;entryDy=0;" parent="1" source="21" target="22" edge="1">
                    <mxGeometry width="50" height="50" relative="1" as="geometry">
                        <mxPoint x="-806.9949999999999" y="584.5" as="sourcePoint"/>
                        <mxPoint x="-598.9999999999995" y="497.00000000000045" as="targetPoint"/>
                    </mxGeometry>
                </mxCell>
                <mxCell id="31" value="Web&lt;br&gt;Server" style="ellipse;shape=cloud;whiteSpace=wrap;html=1;glass=0;sketch=1;hachureGap=4;fillStyle=auto;fontFamily=Comic Sans MS;fontSize=40;fontColor=#660000;strokeWidth=2;" parent="1" vertex="1">
                    <mxGeometry x="-1616" y="943" width="241" height="133" as="geometry"/>
                </mxCell>
                <mxCell id="32" value="" style="rounded=0;whiteSpace=wrap;html=1;glass=0;sketch=1;hachureGap=4;fillStyle=auto;fontFamily=Comic Sans MS;fontSize=40;fontColor=#660000;strokeWidth=2;" parent="1" vertex="1">
                    <mxGeometry x="-1226" y="772" width="623" height="383" as="geometry"/>
                </mxCell>
                <mxCell id="33" value="&lt;font face=&quot;Comic Sans MS&quot; size=&quot;1&quot;&gt;&lt;b style=&quot;font-size: 35px&quot;&gt;Source&lt;/b&gt;&lt;/font&gt;" style="rounded=1;whiteSpace=wrap;html=1;glass=0;sketch=1;hachureGap=4;fillStyle=auto;fontFamily=Architects Daughter;fontSource=https%3A%2F%2Ffonts.googleapis.com%2Fcss%3Ffamily%3DArchitects%2BDaughter;fontSize=20;strokeWidth=2;" parent="1" vertex="1">
                    <mxGeometry x="-1195" y="861" width="201" height="82" as="geometry"/>
                </mxCell>
                <mxCell id="34" value="&lt;font face=&quot;Comic Sans MS&quot; style=&quot;font-size: 36px&quot;&gt;&lt;b&gt;Channel&lt;/b&gt;&lt;/font&gt;" style="shape=cylinder3;whiteSpace=wrap;html=1;boundedLbl=1;backgroundOutline=1;size=12;glass=0;sketch=1;hachureGap=4;fillStyle=auto;fontFamily=Architects Daughter;fontSource=https%3A%2F%2Ffonts.googleapis.com%2Fcss%3Ffamily%3DArchitects%2BDaughter;fontSize=20;strokeWidth=2;direction=south;flipV=0;horizontal=1;" parent="1" vertex="1">
                    <mxGeometry x="-1026.5" y="1032" width="224" height="84" as="geometry"/>
                </mxCell>
                <mxCell id="35" value="&lt;font face=&quot;Comic Sans MS&quot; style=&quot;font-size: 35px&quot;&gt;&lt;b&gt;Sink&lt;/b&gt;&lt;/font&gt;" style="rounded=1;whiteSpace=wrap;html=1;glass=0;sketch=1;hachureGap=4;fillStyle=auto;fontFamily=Architects Daughter;fontSource=https%3A%2F%2Ffonts.googleapis.com%2Fcss%3Ffamily%3DArchitects%2BDaughter;fontSize=20;strokeWidth=2;" parent="1" vertex="1">
                    <mxGeometry x="-804" y="815" width="178" height="76" as="geometry"/>
                </mxCell>
                <mxCell id="36" value="" style="endArrow=classic;html=1;rounded=0;sketch=1;hachureGap=4;fontFamily=Comic Sans MS;fontSize=40;fontColor=#660000;startSize=14;endSize=14;sourcePerimeterSpacing=8;targetPerimeterSpacing=8;strokeWidth=4;exitX=0.875;exitY=0.5;exitDx=0;exitDy=0;exitPerimeter=0;entryX=0;entryY=0.5;entryDx=0;entryDy=0;" parent="1" edge="1">
                    <mxGeometry width="50" height="50" relative="1" as="geometry">
                        <mxPoint x="-1398.1250000000005" y="1006.5" as="sourcePoint"/>
                        <mxPoint x="-1189.9999999999995" y="899.0000000000005" as="targetPoint"/>
                    </mxGeometry>
                </mxCell>
                <mxCell id="37" value="" style="endArrow=classic;html=1;rounded=0;sketch=1;hachureGap=4;fontFamily=Comic Sans MS;fontSize=40;fontColor=#660000;startSize=14;endSize=14;sourcePerimeterSpacing=8;targetPerimeterSpacing=8;strokeWidth=4;exitX=0.5;exitY=1;exitDx=0;exitDy=0;entryX=0.5;entryY=1;entryDx=0;entryDy=0;entryPerimeter=0;" parent="1" edge="1">
                    <mxGeometry width="50" height="50" relative="1" as="geometry">
                        <mxPoint x="-1097.25" y="946.0000000000005" as="sourcePoint"/>
                        <mxPoint x="-1022.7499999999991" y="1083" as="targetPoint"/>
                    </mxGeometry>
                </mxCell>
                <mxCell id="38" value="" style="endArrow=classic;html=1;rounded=0;sketch=1;hachureGap=4;fontFamily=Comic Sans MS;fontSize=40;fontColor=#660000;startSize=14;endSize=14;sourcePerimeterSpacing=8;targetPerimeterSpacing=8;strokeWidth=4;exitX=0.875;exitY=0.5;exitDx=0;exitDy=0;exitPerimeter=0;entryX=0.5;entryY=1;entryDx=0;entryDy=0;" parent="1" edge="1">
                    <mxGeometry width="50" height="50" relative="1" as="geometry">
                        <mxPoint x="-802.5049999999999" y="1070.5000000000005" as="sourcePoint"/>
                        <mxPoint x="-710.5100000000004" y="889.0000000000005" as="targetPoint"/>
                    </mxGeometry>
                </mxCell>
                <mxCell id="39" value="Web&lt;br&gt;Server" style="ellipse;shape=cloud;whiteSpace=wrap;html=1;glass=0;sketch=1;hachureGap=4;fillStyle=auto;fontFamily=Comic Sans MS;fontSize=40;fontColor=#660000;strokeWidth=2;" parent="1" vertex="1">
                    <mxGeometry x="-1616" y="1422" width="241" height="133" as="geometry"/>
                </mxCell>
                <mxCell id="40" value="" style="rounded=0;whiteSpace=wrap;html=1;glass=0;sketch=1;hachureGap=4;fillStyle=auto;fontFamily=Comic Sans MS;fontSize=40;fontColor=#660000;strokeWidth=2;" parent="1" vertex="1">
                    <mxGeometry x="-1226" y="1250" width="623" height="383" as="geometry"/>
                </mxCell>
                <mxCell id="41" value="&lt;font face=&quot;Comic Sans MS&quot; size=&quot;1&quot;&gt;&lt;b style=&quot;font-size: 35px&quot;&gt;Source&lt;/b&gt;&lt;/font&gt;" style="rounded=1;whiteSpace=wrap;html=1;glass=0;sketch=1;hachureGap=4;fillStyle=auto;fontFamily=Architects Daughter;fontSource=https%3A%2F%2Ffonts.googleapis.com%2Fcss%3Ffamily%3DArchitects%2BDaughter;fontSize=20;strokeWidth=2;" parent="1" vertex="1">
                    <mxGeometry x="-1192" y="1345" width="201" height="82" as="geometry"/>
                </mxCell>
                <mxCell id="42" value="&lt;font face=&quot;Comic Sans MS&quot; style=&quot;font-size: 36px&quot;&gt;&lt;b&gt;Channel&lt;/b&gt;&lt;/font&gt;" style="shape=cylinder3;whiteSpace=wrap;html=1;boundedLbl=1;backgroundOutline=1;size=12;glass=0;sketch=1;hachureGap=4;fillStyle=auto;fontFamily=Architects Daughter;fontSource=https%3A%2F%2Ffonts.googleapis.com%2Fcss%3Ffamily%3DArchitects%2BDaughter;fontSize=20;strokeWidth=2;direction=south;flipV=0;horizontal=1;" parent="1" vertex="1">
                    <mxGeometry x="-1026.5" y="1503" width="224" height="84" as="geometry"/>
                </mxCell>
                <mxCell id="43" value="&lt;font face=&quot;Comic Sans MS&quot; style=&quot;font-size: 35px&quot;&gt;&lt;b&gt;Sink&lt;/b&gt;&lt;/font&gt;" style="rounded=1;whiteSpace=wrap;html=1;glass=0;sketch=1;hachureGap=4;fillStyle=auto;fontFamily=Architects Daughter;fontSource=https%3A%2F%2Ffonts.googleapis.com%2Fcss%3Ffamily%3DArchitects%2BDaughter;fontSize=20;strokeWidth=2;" parent="1" vertex="1">
                    <mxGeometry x="-824" y="1293" width="178" height="76" as="geometry"/>
                </mxCell>
                <mxCell id="44" value="" style="endArrow=classic;html=1;rounded=0;sketch=1;hachureGap=4;fontFamily=Comic Sans MS;fontSize=40;fontColor=#660000;startSize=14;endSize=14;sourcePerimeterSpacing=8;targetPerimeterSpacing=8;strokeWidth=4;exitX=0.875;exitY=0.5;exitDx=0;exitDy=0;exitPerimeter=0;entryX=0;entryY=0.5;entryDx=0;entryDy=0;" parent="1" edge="1">
                    <mxGeometry width="50" height="50" relative="1" as="geometry">
                        <mxPoint x="-1398.1250000000005" y="1490.5" as="sourcePoint"/>
                        <mxPoint x="-1189.9999999999995" y="1383.0000000000005" as="targetPoint"/>
                    </mxGeometry>
                </mxCell>
                <mxCell id="45" value="" style="endArrow=classic;html=1;rounded=0;sketch=1;hachureGap=4;fontFamily=Comic Sans MS;fontSize=40;fontColor=#660000;startSize=14;endSize=14;sourcePerimeterSpacing=8;targetPerimeterSpacing=8;strokeWidth=4;exitX=0.5;exitY=1;exitDx=0;exitDy=0;entryX=0.5;entryY=1;entryDx=0;entryDy=0;entryPerimeter=0;" parent="1" edge="1">
                    <mxGeometry width="50" height="50" relative="1" as="geometry">
                        <mxPoint x="-1101" y="1430.0000000000005" as="sourcePoint"/>
                        <mxPoint x="-1026.499999999999" y="1567" as="targetPoint"/>
                    </mxGeometry>
                </mxCell>
                <mxCell id="46" value="" style="endArrow=classic;html=1;rounded=0;sketch=1;hachureGap=4;fontFamily=Comic Sans MS;fontSize=40;fontColor=#660000;startSize=14;endSize=14;sourcePerimeterSpacing=8;targetPerimeterSpacing=8;strokeWidth=4;exitX=0.875;exitY=0.5;exitDx=0;exitDy=0;exitPerimeter=0;entryX=0.5;entryY=1;entryDx=0;entryDy=0;" parent="1" edge="1">
                    <mxGeometry width="50" height="50" relative="1" as="geometry">
                        <mxPoint x="-802.4950000000001" y="1550.5000000000005" as="sourcePoint"/>
                        <mxPoint x="-710.5000000000002" y="1369.0000000000005" as="targetPoint"/>
                    </mxGeometry>
                </mxCell>
                <mxCell id="47" value="" style="rounded=0;whiteSpace=wrap;html=1;glass=0;sketch=1;hachureGap=4;fillStyle=auto;fontFamily=Comic Sans MS;fontSize=40;fontColor=#660000;strokeWidth=2;" parent="1" vertex="1">
                    <mxGeometry x="-416" y="628" width="623" height="383" as="geometry"/>
                </mxCell>
                <mxCell id="48" value="&lt;font face=&quot;Comic Sans MS&quot; size=&quot;1&quot;&gt;&lt;b style=&quot;font-size: 35px&quot;&gt;Source&lt;/b&gt;&lt;/font&gt;" style="rounded=1;whiteSpace=wrap;html=1;glass=0;sketch=1;hachureGap=4;fillStyle=auto;fontFamily=Architects Daughter;fontSource=https%3A%2F%2Ffonts.googleapis.com%2Fcss%3Ffamily%3DArchitects%2BDaughter;fontSize=20;strokeWidth=2;" parent="1" vertex="1">
                    <mxGeometry x="-373" y="709" width="201" height="82" as="geometry"/>
                </mxCell>
                <mxCell id="49" value="&lt;font face=&quot;Comic Sans MS&quot; style=&quot;font-size: 36px&quot;&gt;&lt;b&gt;Channel&lt;/b&gt;&lt;/font&gt;" style="shape=cylinder3;whiteSpace=wrap;html=1;boundedLbl=1;backgroundOutline=1;size=12;glass=0;sketch=1;hachureGap=4;fillStyle=auto;fontFamily=Architects Daughter;fontSource=https%3A%2F%2Ffonts.googleapis.com%2Fcss%3Ffamily%3DArchitects%2BDaughter;fontSize=20;strokeWidth=2;direction=south;flipV=0;horizontal=1;" parent="1" vertex="1">
                    <mxGeometry x="-201" y="891" width="224" height="84" as="geometry"/>
                </mxCell>
                <mxCell id="50" value="&lt;font face=&quot;Comic Sans MS&quot; style=&quot;font-size: 35px&quot;&gt;&lt;b&gt;Sink&lt;/b&gt;&lt;/font&gt;" style="rounded=1;whiteSpace=wrap;html=1;glass=0;sketch=1;hachureGap=4;fillStyle=auto;fontFamily=Architects Daughter;fontSource=https%3A%2F%2Ffonts.googleapis.com%2Fcss%3Ffamily%3DArchitects%2BDaughter;fontSize=20;strokeWidth=2;" parent="1" vertex="1">
                    <mxGeometry x="-19" y="678" width="178" height="76" as="geometry"/>
                </mxCell>
                <mxCell id="51" value="" style="endArrow=classic;html=1;rounded=0;sketch=1;hachureGap=4;fontFamily=Comic Sans MS;fontSize=40;fontColor=#660000;startSize=14;endSize=14;sourcePerimeterSpacing=8;targetPerimeterSpacing=8;strokeWidth=4;exitX=1;exitY=0.75;exitDx=0;exitDy=0;entryX=0;entryY=0.5;entryDx=0;entryDy=0;" parent="1" source="22" target="48" edge="1">
                    <mxGeometry width="50" height="50" relative="1" as="geometry">
                        <mxPoint x="-556.0000000000005" y="606" as="sourcePoint"/>
                        <mxPoint x="-481.5" y="743" as="targetPoint"/>
                    </mxGeometry>
                </mxCell>
                <mxCell id="52" value="" style="endArrow=classic;html=1;rounded=0;sketch=1;hachureGap=4;fontFamily=Comic Sans MS;fontSize=40;fontColor=#660000;startSize=14;endSize=14;sourcePerimeterSpacing=8;targetPerimeterSpacing=8;strokeWidth=4;exitX=1;exitY=0.5;exitDx=0;exitDy=0;entryX=0;entryY=0.5;entryDx=0;entryDy=0;" parent="1" source="35" target="48" edge="1">
                    <mxGeometry width="50" height="50" relative="1" as="geometry">
                        <mxPoint x="-586" y="811" as="sourcePoint"/>
                        <mxPoint x="-333" y="1176.9999999999995" as="targetPoint"/>
                    </mxGeometry>
                </mxCell>
                <mxCell id="53" value="" style="endArrow=classic;html=1;rounded=0;sketch=1;hachureGap=4;fontFamily=Comic Sans MS;fontSize=40;fontColor=#660000;startSize=14;endSize=14;sourcePerimeterSpacing=8;targetPerimeterSpacing=8;strokeWidth=4;exitX=1;exitY=0;exitDx=0;exitDy=0;entryX=0;entryY=0.75;entryDx=0;entryDy=0;" parent="1" source="43" target="48" edge="1">
                    <mxGeometry width="50" height="50" relative="1" as="geometry">
                        <mxPoint x="-531" y="1206" as="sourcePoint"/>
                        <mxPoint x="-278" y="1102.9999999999995" as="targetPoint"/>
                    </mxGeometry>
                </mxCell>
                <mxCell id="54" value="" style="endArrow=classic;html=1;rounded=0;sketch=1;hachureGap=4;fontFamily=Comic Sans MS;fontSize=40;fontColor=#660000;startSize=14;endSize=14;sourcePerimeterSpacing=8;targetPerimeterSpacing=8;strokeWidth=4;exitX=0.5;exitY=1;exitDx=0;exitDy=0;entryX=0.5;entryY=1;entryDx=0;entryDy=0;entryPerimeter=0;" parent="1" edge="1">
                    <mxGeometry width="50" height="50" relative="1" as="geometry">
                        <mxPoint x="-277" y="796.0000000000005" as="sourcePoint"/>
                        <mxPoint x="-202.4999999999991" y="933" as="targetPoint"/>
                    </mxGeometry>
                </mxCell>
                <mxCell id="55" value="" style="endArrow=classic;html=1;rounded=0;sketch=1;hachureGap=4;fontFamily=Comic Sans MS;fontSize=40;fontColor=#660000;startSize=14;endSize=14;sourcePerimeterSpacing=8;targetPerimeterSpacing=8;strokeWidth=4;exitX=0.875;exitY=0.5;exitDx=0;exitDy=0;exitPerimeter=0;entryX=0.5;entryY=1;entryDx=0;entryDy=0;" parent="1" target="50" edge="1">
                    <mxGeometry width="50" height="50" relative="1" as="geometry">
                        <mxPoint x="25.995000000000346" y="931.5000000000009" as="sourcePoint"/>
                        <mxPoint x="117.98999999999978" y="750.0000000000005" as="targetPoint"/>
                    </mxGeometry>
                </mxCell>
                <mxCell id="57" value="" style="endArrow=classic;html=1;rounded=0;sketch=1;hachureGap=4;fontFamily=Comic Sans MS;fontSize=40;fontColor=#660000;startSize=14;endSize=14;sourcePerimeterSpacing=8;targetPerimeterSpacing=8;strokeWidth=4;exitX=0.75;exitY=1;exitDx=0;exitDy=0;entryX=0.5;entryY=0;entryDx=0;entryDy=0;entryPerimeter=0;" parent="1" source="50" target="24" edge="1">
                    <mxGeometry width="50" height="50" relative="1" as="geometry">
                        <mxPoint x="84.5" y="1055" as="sourcePoint"/>
                        <mxPoint x="159.0000000000009" y="1192" as="targetPoint"/>
                    </mxGeometry>
                </mxCell>
                <mxCell id="58" value="" style="rounded=0;whiteSpace=wrap;html=1;sketch=1;hachureGap=4;fontFamily=Architects Daughter;fontSource=https%3A%2F%2Ffonts.googleapis.com%2Fcss%3Ffamily%3DArchitects%2BDaughter;fontSize=20;" vertex="1" parent="1">
                    <mxGeometry x="-1413" y="1850" width="1958" height="611" as="geometry"/>
                </mxCell>
                <mxCell id="59" value="&lt;font face=&quot;Comic Sans MS&quot; style=&quot;font-size: 35px&quot;&gt;Source&lt;/font&gt;" style="ellipse;whiteSpace=wrap;html=1;sketch=1;hachureGap=4;fontFamily=Architects Daughter;fontSource=https%3A%2F%2Ffonts.googleapis.com%2Fcss%3Ffamily%3DArchitects%2BDaughter;fontSize=20;" vertex="1" parent="1">
                    <mxGeometry x="-1360" y="1894" width="219" height="93" as="geometry"/>
                </mxCell>
                <mxCell id="60" value="" style="rounded=0;whiteSpace=wrap;html=1;sketch=1;hachureGap=4;fontFamily=Architects Daughter;fontSource=https%3A%2F%2Ffonts.googleapis.com%2Fcss%3Ffamily%3DArchitects%2BDaughter;fontSize=20;" vertex="1" parent="1">
                    <mxGeometry x="-1286" y="2098.5" width="520" height="177" as="geometry"/>
                </mxCell>
                <mxCell id="61" value="&lt;font face=&quot;Comic Sans MS&quot; style=&quot;font-size: 30px&quot;&gt;doPut&lt;/font&gt;" style="rounded=0;whiteSpace=wrap;html=1;sketch=1;hachureGap=4;fontFamily=Architects Daughter;fontSource=https%3A%2F%2Ffonts.googleapis.com%2Fcss%3Ffamily%3DArchitects%2BDaughter;fontSize=20;" vertex="1" parent="1">
                    <mxGeometry x="-1265" y="2131" width="161" height="61" as="geometry"/>
                </mxCell>
                <mxCell id="62" value="&lt;font face=&quot;Comic Sans MS&quot; style=&quot;font-size: 30px&quot;&gt;putList&lt;/font&gt;" style="rounded=0;whiteSpace=wrap;html=1;sketch=1;hachureGap=4;fontFamily=Architects Daughter;fontSource=https%3A%2F%2Ffonts.googleapis.com%2Fcss%3Ffamily%3DArchitects%2BDaughter;fontSize=20;" vertex="1" parent="1">
                    <mxGeometry x="-1054" y="2131" width="161" height="61" as="geometry"/>
                </mxCell>
                <mxCell id="63" value="&lt;font face=&quot;Comic Sans MS&quot;&gt;&lt;span style=&quot;font-size: 31px&quot;&gt;Transaction&lt;/span&gt;&lt;/font&gt;" style="text;strokeColor=none;fillColor=none;html=1;align=center;verticalAlign=middle;whiteSpace=wrap;rounded=0;sketch=1;hachureGap=4;fontFamily=Architects Daughter;fontSource=https%3A%2F%2Ffonts.googleapis.com%2Fcss%3Ffamily%3DArchitects%2BDaughter;fontSize=20;" vertex="1" parent="1">
                    <mxGeometry x="-1138" y="2049" width="199" height="54" as="geometry"/>
                </mxCell>
                <mxCell id="92" style="edgeStyle=none;curved=1;rounded=0;sketch=1;hachureGap=4;orthogonalLoop=1;jettySize=auto;html=1;exitX=1;exitY=0;exitDx=0;exitDy=0;entryX=0;entryY=0;entryDx=0;entryDy=0;fontFamily=Comic Sans MS;fontSize=30;endArrow=open;startSize=14;endSize=14;sourcePerimeterSpacing=8;targetPerimeterSpacing=8;" edge="1" parent="1" source="64" target="73">
                    <mxGeometry relative="1" as="geometry"/>
                </mxCell>
                <mxCell id="64" value="doCommit" style="text;strokeColor=none;fillColor=none;html=1;align=center;verticalAlign=middle;whiteSpace=wrap;rounded=0;sketch=1;hachureGap=4;fontFamily=Comic Sans MS;fontSize=31;" vertex="1" parent="1">
                    <mxGeometry x="-916" y="2190" width="148" height="45" as="geometry"/>
                </mxCell>
                <mxCell id="65" value="&lt;font face=&quot;Comic Sans MS&quot;&gt;&lt;span style=&quot;font-size: 31px&quot;&gt;doRollback&lt;/span&gt;&lt;/font&gt;" style="text;strokeColor=none;fillColor=none;html=1;align=center;verticalAlign=middle;whiteSpace=wrap;rounded=0;sketch=1;hachureGap=4;fontFamily=Architects Daughter;fontSource=https%3A%2F%2Ffonts.googleapis.com%2Fcss%3Ffamily%3DArchitects%2BDaughter;fontSize=20;" vertex="1" parent="1">
                    <mxGeometry x="-1133.5" y="2290" width="215" height="54" as="geometry"/>
                </mxCell>
                <mxCell id="73" value="" style="ellipse;whiteSpace=wrap;html=1;sketch=1;hachureGap=4;fontFamily=Comic Sans MS;fontSize=31;" vertex="1" parent="1">
                    <mxGeometry x="-733" y="2270" width="772.5" height="131" as="geometry"/>
                </mxCell>
                <mxCell id="74" value="" style="ellipse;whiteSpace=wrap;html=1;sketch=1;hachureGap=4;fontFamily=Comic Sans MS;fontSize=31;" vertex="1" parent="1">
                    <mxGeometry x="-239" y="2293.5" width="266" height="84" as="geometry"/>
                </mxCell>
                <mxCell id="75" value="Eventn" style="rounded=0;whiteSpace=wrap;html=1;sketch=1;hachureGap=4;fontFamily=Comic Sans MS;fontSize=31;" vertex="1" parent="1">
                    <mxGeometry x="-659" y="2309" width="119" height="60" as="geometry"/>
                </mxCell>
                <mxCell id="76" value="Event2" style="rounded=0;whiteSpace=wrap;html=1;sketch=1;hachureGap=4;fontFamily=Comic Sans MS;fontSize=31;" vertex="1" parent="1">
                    <mxGeometry x="-505" y="2310.75" width="128" height="59.25" as="geometry"/>
                </mxCell>
                <mxCell id="77" value="Event1" style="rounded=0;whiteSpace=wrap;html=1;sketch=1;hachureGap=4;fontFamily=Comic Sans MS;fontSize=31;" vertex="1" parent="1">
                    <mxGeometry x="-364" y="2309" width="130" height="58" as="geometry"/>
                </mxCell>
                <mxCell id="79" value="" style="rounded=0;whiteSpace=wrap;html=1;sketch=1;hachureGap=4;fontFamily=Architects Daughter;fontSource=https%3A%2F%2Ffonts.googleapis.com%2Fcss%3Ffamily%3DArchitects%2BDaughter;fontSize=20;" vertex="1" parent="1">
                    <mxGeometry x="-130" y="2026" width="505" height="177" as="geometry"/>
                </mxCell>
                <mxCell id="80" value="takeList" style="rounded=0;whiteSpace=wrap;html=1;sketch=1;hachureGap=4;fontFamily=Comic Sans MS;fontSize=31;" vertex="1" parent="1">
                    <mxGeometry x="60" y="2082.25" width="160" height="64.5" as="geometry"/>
                </mxCell>
                <mxCell id="81" value="&lt;font face=&quot;Comic Sans MS&quot;&gt;&lt;span style=&quot;font-size: 31px&quot;&gt;接收事件&lt;/span&gt;&lt;/font&gt;" style="text;strokeColor=none;fillColor=none;html=1;align=center;verticalAlign=middle;whiteSpace=wrap;rounded=0;sketch=1;hachureGap=4;fontFamily=Architects Daughter;fontSource=https%3A%2F%2Ffonts.googleapis.com%2Fcss%3Ffamily%3DArchitects%2BDaughter;fontSize=20;" vertex="1" parent="1">
                    <mxGeometry x="-1119" y="1878" width="153.5" height="54" as="geometry"/>
                </mxCell>
                <mxCell id="82" value="" style="edgeStyle=none;orthogonalLoop=1;jettySize=auto;html=1;rounded=0;sketch=1;hachureGap=4;fontFamily=Comic Sans MS;fontSize=31;endArrow=open;startSize=14;endSize=14;sourcePerimeterSpacing=8;targetPerimeterSpacing=8;curved=1;exitX=0;exitY=0.5;exitDx=0;exitDy=0;entryX=0;entryY=0.5;entryDx=0;entryDy=0;" edge="1" parent="1" source="79" target="80">
                    <mxGeometry width="120" relative="1" as="geometry">
                        <mxPoint x="-237" y="1997" as="sourcePoint"/>
                        <mxPoint x="-117" y="1997" as="targetPoint"/>
                        <Array as="points"/>
                    </mxGeometry>
                </mxCell>
                <mxCell id="83" value="" style="edgeStyle=none;orthogonalLoop=1;jettySize=auto;html=1;rounded=0;sketch=1;hachureGap=4;fontFamily=Comic Sans MS;fontSize=31;endArrow=open;startSize=14;endSize=14;sourcePerimeterSpacing=8;targetPerimeterSpacing=8;curved=1;exitX=1;exitY=0.5;exitDx=0;exitDy=0;entryX=1;entryY=0.5;entryDx=0;entryDy=0;" edge="1" parent="1" source="80" target="79">
                    <mxGeometry width="120" relative="1" as="geometry">
                        <mxPoint x="64" y="2102.5" as="sourcePoint"/>
                        <mxPoint x="184" y="2102.5" as="targetPoint"/>
                        <Array as="points"/>
                    </mxGeometry>
                </mxCell>
                <mxCell id="84" value="&lt;font face=&quot;Comic Sans MS&quot; style=&quot;font-size: 35px&quot;&gt;Sink&lt;/font&gt;" style="ellipse;whiteSpace=wrap;html=1;sketch=1;hachureGap=4;fontFamily=Architects Daughter;fontSource=https%3A%2F%2Ffonts.googleapis.com%2Fcss%3Ffamily%3DArchitects%2BDaughter;fontSize=20;" vertex="1" parent="1">
                    <mxGeometry x="315" y="1869" width="219" height="93" as="geometry"/>
                </mxCell>
                <mxCell id="85" value="" style="edgeStyle=none;orthogonalLoop=1;jettySize=auto;html=1;rounded=0;sketch=1;hachureGap=4;fontFamily=Comic Sans MS;fontSize=35;endArrow=open;startSize=14;endSize=14;sourcePerimeterSpacing=8;targetPerimeterSpacing=8;curved=1;exitX=0.5;exitY=1;exitDx=0;exitDy=0;entryX=0;entryY=0.5;entryDx=0;entryDy=0;" edge="1" parent="1" source="59" target="60">
                    <mxGeometry width="120" relative="1" as="geometry">
                        <mxPoint x="-1293" y="2018" as="sourcePoint"/>
                        <mxPoint x="-1173" y="2018" as="targetPoint"/>
                        <Array as="points">
                            <mxPoint x="-1236" y="2049"/>
                            <mxPoint x="-1380" y="2034"/>
                        </Array>
                    </mxGeometry>
                </mxCell>
                <mxCell id="86" value="&lt;font face=&quot;Comic Sans MS&quot;&gt;&lt;span style=&quot;font-size: 31px&quot;&gt;batch data&lt;/span&gt;&lt;/font&gt;" style="text;strokeColor=none;fillColor=none;html=1;align=center;verticalAlign=middle;whiteSpace=wrap;rounded=0;sketch=1;hachureGap=4;fontFamily=Architects Daughter;fontSource=https%3A%2F%2Ffonts.googleapis.com%2Fcss%3Ffamily%3DArchitects%2BDaughter;fontSize=20;" vertex="1" parent="1">
                    <mxGeometry x="-1259" y="1987" width="192" height="54" as="geometry"/>
                </mxCell>
                <mxCell id="87" value="" style="edgeStyle=none;orthogonalLoop=1;jettySize=auto;html=1;rounded=0;sketch=1;hachureGap=4;fontFamily=Comic Sans MS;fontSize=30;endArrow=open;startSize=14;endSize=14;sourcePerimeterSpacing=8;targetPerimeterSpacing=8;curved=1;" edge="1" parent="1">
                    <mxGeometry width="120" relative="1" as="geometry">
                        <mxPoint x="-1101" y="2164" as="sourcePoint"/>
                        <mxPoint x="-1052" y="2164" as="targetPoint"/>
                        <Array as="points"/>
                    </mxGeometry>
                </mxCell>
                <mxCell id="88" value="" style="edgeStyle=none;orthogonalLoop=1;jettySize=auto;html=1;rounded=0;sketch=1;hachureGap=4;fontFamily=Comic Sans MS;fontSize=30;endArrow=open;startSize=14;endSize=14;sourcePerimeterSpacing=8;targetPerimeterSpacing=8;curved=1;entryX=0.75;entryY=0;entryDx=0;entryDy=0;" edge="1" parent="1" target="64">
                    <mxGeometry width="120" relative="1" as="geometry">
                        <mxPoint x="-893" y="2164" as="sourcePoint"/>
                        <mxPoint x="-773" y="2164" as="targetPoint"/>
                        <Array as="points"/>
                    </mxGeometry>
                </mxCell>
                <mxCell id="90" value="" style="edgeStyle=none;orthogonalLoop=1;jettySize=auto;html=1;rounded=0;sketch=1;hachureGap=4;fontFamily=Comic Sans MS;fontSize=30;endArrow=open;startSize=14;endSize=14;sourcePerimeterSpacing=8;targetPerimeterSpacing=8;curved=1;exitX=0.25;exitY=1;exitDx=0;exitDy=0;entryX=0.75;entryY=1;entryDx=0;entryDy=0;" edge="1" parent="1" source="62" target="62">
                    <mxGeometry width="120" relative="1" as="geometry">
                        <mxPoint x="-1054" y="2229" as="sourcePoint"/>
                        <mxPoint x="-934" y="2229" as="targetPoint"/>
                        <Array as="points">
                            <mxPoint x="-973" y="2262"/>
                        </Array>
                    </mxGeometry>
                </mxCell>
                <mxCell id="93" value="Channel" style="text;strokeColor=none;fillColor=none;html=1;align=center;verticalAlign=middle;whiteSpace=wrap;rounded=0;sketch=1;hachureGap=4;fontFamily=Comic Sans MS;fontSize=35;" vertex="1" parent="1">
                    <mxGeometry x="-442" y="2209" width="145" height="61" as="geometry"/>
                </mxCell>
                <mxCell id="94" value="" style="edgeStyle=none;orthogonalLoop=1;jettySize=auto;html=1;rounded=0;sketch=1;hachureGap=4;fontFamily=Comic Sans MS;fontSize=35;endArrow=open;startSize=14;endSize=14;sourcePerimeterSpacing=8;targetPerimeterSpacing=8;curved=1;exitX=0.671;exitY=0.01;exitDx=0;exitDy=0;exitPerimeter=0;" edge="1" parent="1" source="73">
                    <mxGeometry width="120" relative="1" as="geometry">
                        <mxPoint x="-292.5" y="2144.75" as="sourcePoint"/>
                        <mxPoint x="-129" y="2114" as="targetPoint"/>
                        <Array as="points"/>
                    </mxGeometry>
                </mxCell>
                <mxCell id="95" value="&lt;font face=&quot;Comic Sans MS&quot;&gt;&lt;span style=&quot;font-size: 31px&quot;&gt;推送事件&lt;/span&gt;&lt;/font&gt;" style="text;strokeColor=none;fillColor=none;html=1;align=center;verticalAlign=middle;whiteSpace=wrap;rounded=0;sketch=1;hachureGap=4;fontFamily=Architects Daughter;fontSource=https%3A%2F%2Ffonts.googleapis.com%2Fcss%3Ffamily%3DArchitects%2BDaughter;fontSize=20;" vertex="1" parent="1">
                    <mxGeometry x="-721" y="2181" width="153.5" height="54" as="geometry"/>
                </mxCell>
                <mxCell id="96" value="&lt;font face=&quot;Comic Sans MS&quot;&gt;&lt;span style=&quot;font-size: 31px&quot;&gt;拉取事件&lt;/span&gt;&lt;/font&gt;" style="text;strokeColor=none;fillColor=none;html=1;align=center;verticalAlign=middle;whiteSpace=wrap;rounded=0;sketch=1;hachureGap=4;fontFamily=Architects Daughter;fontSource=https%3A%2F%2Ffonts.googleapis.com%2Fcss%3Ffamily%3DArchitects%2BDaughter;fontSize=20;" vertex="1" parent="1">
                    <mxGeometry x="-309.25" y="2134.5" width="153.5" height="54" as="geometry"/>
                </mxCell>
                <mxCell id="97" value="&lt;font face=&quot;Comic Sans MS&quot;&gt;&lt;span style=&quot;font-size: 31px&quot;&gt;Transaction&lt;/span&gt;&lt;/font&gt;" style="text;strokeColor=none;fillColor=none;html=1;align=center;verticalAlign=middle;whiteSpace=wrap;rounded=0;sketch=1;hachureGap=4;fontFamily=Architects Daughter;fontSource=https%3A%2F%2Ffonts.googleapis.com%2Fcss%3Ffamily%3DArchitects%2BDaughter;fontSize=20;" vertex="1" parent="1">
                    <mxGeometry x="23" y="1978" width="199" height="54" as="geometry"/>
                </mxCell>
                <mxCell id="99" value="doTake" style="text;strokeColor=none;fillColor=none;html=1;align=center;verticalAlign=middle;whiteSpace=wrap;rounded=0;sketch=1;hachureGap=4;fontFamily=Comic Sans MS;fontSize=35;" vertex="1" parent="1">
                    <mxGeometry x="-100" y="2068" width="99" height="42" as="geometry"/>
                </mxCell>
                <mxCell id="100" value="batch data" style="text;strokeColor=none;fillColor=none;html=1;align=center;verticalAlign=middle;whiteSpace=wrap;rounded=0;sketch=1;hachureGap=4;fontFamily=Comic Sans MS;fontSize=35;" vertex="1" parent="1">
                    <mxGeometry x="-136" y="2120" width="203" height="42" as="geometry"/>
                </mxCell>
                <mxCell id="101" value="doCommit" style="text;strokeColor=none;fillColor=none;html=1;align=center;verticalAlign=middle;whiteSpace=wrap;rounded=0;sketch=1;hachureGap=4;fontFamily=Comic Sans MS;fontSize=31;" vertex="1" parent="1">
                    <mxGeometry x="225" y="2120" width="148" height="45" as="geometry"/>
                </mxCell>
                <mxCell id="102" value="" style="edgeStyle=none;orthogonalLoop=1;jettySize=auto;html=1;rounded=0;sketch=1;hachureGap=4;fontFamily=Comic Sans MS;fontSize=35;endArrow=open;startSize=14;endSize=14;sourcePerimeterSpacing=8;targetPerimeterSpacing=8;curved=1;exitX=0.25;exitY=1;exitDx=0;exitDy=0;entryX=1;entryY=0.5;entryDx=0;entryDy=0;" edge="1" parent="1" source="80" target="77">
                    <mxGeometry width="120" relative="1" as="geometry">
                        <mxPoint x="113" y="2235" as="sourcePoint"/>
                        <mxPoint x="-204" y="2336" as="targetPoint"/>
                        <Array as="points">
                            <mxPoint x="108" y="2314"/>
                        </Array>
                    </mxGeometry>
                </mxCell>
                <mxCell id="103" value="&lt;font face=&quot;Comic Sans MS&quot;&gt;&lt;span style=&quot;font-size: 31px&quot;&gt;doRollback&lt;/span&gt;&lt;/font&gt;" style="text;strokeColor=none;fillColor=none;html=1;align=center;verticalAlign=middle;whiteSpace=wrap;rounded=0;sketch=1;hachureGap=4;fontFamily=Architects Daughter;fontSource=https%3A%2F%2Ffonts.googleapis.com%2Fcss%3Ffamily%3DArchitects%2BDaughter;fontSize=20;" vertex="1" parent="1">
                    <mxGeometry x="-136" y="2221.5" width="215" height="54" as="geometry"/>
                </mxCell>
                <mxCell id="104" value="" style="edgeStyle=none;orthogonalLoop=1;jettySize=auto;html=1;rounded=0;sketch=1;hachureGap=4;fontFamily=Comic Sans MS;fontSize=35;endArrow=open;startSize=14;endSize=14;sourcePerimeterSpacing=8;targetPerimeterSpacing=8;curved=1;entryX=0.75;entryY=1;entryDx=0;entryDy=0;" edge="1" parent="1" target="80">
                    <mxGeometry width="120" relative="1" as="geometry">
                        <mxPoint x="102" y="2149" as="sourcePoint"/>
                        <mxPoint x="222" y="2181" as="targetPoint"/>
                        <Array as="points">
                            <mxPoint x="151" y="2221"/>
                        </Array>
                    </mxGeometry>
                </mxCell>
                <mxCell id="107" value="" style="edgeStyle=none;orthogonalLoop=1;jettySize=auto;html=1;rounded=0;sketch=1;hachureGap=4;fontFamily=Comic Sans MS;fontSize=35;endArrow=open;startSize=14;endSize=14;sourcePerimeterSpacing=8;targetPerimeterSpacing=8;curved=1;exitX=1;exitY=0.5;exitDx=0;exitDy=0;entryX=0.5;entryY=1;entryDx=0;entryDy=0;" edge="1" parent="1" source="79" target="84">
                    <mxGeometry width="120" relative="1" as="geometry">
                        <mxPoint x="168" y="1950" as="sourcePoint"/>
                        <mxPoint x="288" y="1950" as="targetPoint"/>
                        <Array as="points"/>
                    </mxGeometry>
                </mxCell>
                <mxCell id="108" value="&lt;font style=&quot;font-size: 43px&quot;&gt;Agent&lt;/font&gt;" style="text;strokeColor=none;fillColor=none;html=1;align=center;verticalAlign=middle;whiteSpace=wrap;rounded=0;sketch=1;hachureGap=4;fontFamily=Comic Sans MS;fontSize=35;" vertex="1" parent="1">
                    <mxGeometry x="-467" y="1854" width="148" height="67" as="geometry"/>
                </mxCell>
                <mxCell id="110" value="" style="edgeStyle=none;orthogonalLoop=1;jettySize=auto;html=1;rounded=0;sketch=1;hachureGap=4;fontFamily=Comic Sans MS;fontSize=43;endArrow=open;startSize=14;endSize=14;sourcePerimeterSpacing=8;targetPerimeterSpacing=8;curved=1;exitX=0.875;exitY=0.5;exitDx=0;exitDy=0;exitPerimeter=0;entryX=0;entryY=0.5;entryDx=0;entryDy=0;" edge="1" parent="1" source="19" target="59">
                    <mxGeometry width="120" relative="1" as="geometry">
                        <mxPoint x="-1573" y="2032" as="sourcePoint"/>
                        <mxPoint x="-1453" y="2032" as="targetPoint"/>
                        <Array as="points"/>
                    </mxGeometry>
                </mxCell>
                <mxCell id="111" value="" style="edgeStyle=none;orthogonalLoop=1;jettySize=auto;html=1;rounded=0;sketch=1;hachureGap=4;fontFamily=Comic Sans MS;fontSize=43;endArrow=open;startSize=14;endSize=14;sourcePerimeterSpacing=8;targetPerimeterSpacing=8;curved=1;exitX=1;exitY=0.5;exitDx=0;exitDy=0;entryX=0.5;entryY=0;entryDx=0;entryDy=0;entryPerimeter=0;" edge="1" parent="1" source="84" target="112">
                    <mxGeometry width="120" relative="1" as="geometry">
                        <mxPoint x="512" y="2026" as="sourcePoint"/>
                        <mxPoint x="632" y="2026" as="targetPoint"/>
                        <Array as="points"/>
                    </mxGeometry>
                </mxCell>
                <mxCell id="112" value="HDFS" style="shape=cylinder3;whiteSpace=wrap;html=1;boundedLbl=1;backgroundOutline=1;size=15;glass=0;sketch=1;hachureGap=4;fillStyle=auto;fontFamily=Comic Sans MS;fontSize=40;fontColor=#660000;strokeWidth=2;" vertex="1" parent="1">
                    <mxGeometry x="681" y="2225" width="230" height="157" as="geometry"/>
                </mxCell>
            </root>
        </mxGraphModel>
    </diagram>
</mxfile>